<svg id="Capa_1" enable-background="new 0 0 512 512" height="512" viewBox="0 0 512 512" width="512" xmlns="http://www.w3.org/2000/svg"><g><g><g><path d="m42.944 398.573h-8.089c-15.107 0-27.354 12.247-27.354 27.354v46.912h164.077v-46.912c0-15.107-12.247-27.354-27.354-27.354z" fill="#c4e2ff"/><path d="m144.222 398.573h-25.512c15.107 0 27.354 12.247 27.354 27.354v46.912h25.512v-46.912c.001-15.107-12.246-27.354-27.354-27.354z" fill="#b3dafe"/><path d="m64.195 345.894v41.082l25.25 16.834 25.25-16.834v-41.082z" fill="#ffcebf"/><path d="m150.387 286.191c-.282 0-.562.01-.842.021-4.823-28.838-29.893-50.817-60.1-50.817-30.207 0-55.277 21.979-60.1 50.817-.28-.011-.56-.021-.842-.021-11.429 0-20.694 9.265-20.694 20.693 0 11.429 9.265 20.694 20.694 20.694.282 0 .562-.01.842-.021 4.823 28.838 29.893 50.817 60.1 50.817 30.207 0 55.277-21.979 60.1-50.817.28.011.56.021.842.021 11.429 0 20.694-9.265 20.694-20.694s-9.265-20.693-20.694-20.693z" fill="#ffcebf"/><path d="m64.195 386.977-21.345 11.596 30.114 22.445 16.481-17.208z" fill="#b3dafe"/><path d="m114.695 386.977 21.344 11.596-30.113 22.445-16.481-17.208z" fill="#b3dafe"/><path d="m89.445 403.81-12.943 13.513 4.691 18.383h16.503l4.691-18.383z" fill="#fd544d"/><path d="m81.193 435.706-7.295 37.133h31.09l-7.295-37.133z" fill="#fd544d"/><path d="m150.387 286.191c-.282 0-.562.01-.842.021-4.823-28.838-29.893-50.817-60.1-50.817-3.38 0-6.691.29-9.921.819 25.638 4.2 45.895 24.387 50.179 49.998.28-.011.56-.021.842-.021 11.429 0 20.694 9.265 20.694 20.694s-9.265 20.694-20.694 20.694c-.282 0-.562-.01-.842-.021-4.283 25.611-24.541 45.798-50.179 49.998 3.23.529 6.541.819 9.921.819 30.207 0 55.277-21.979 60.1-50.817.28.011.56.021.842.021 11.429 0 20.694-9.265 20.694-20.694 0-11.43-9.265-20.694-20.694-20.694z" fill="#ffbfb1"/><path d="m114.695 386.977-10.182 6.788 8.849 4.808-16.882 12.583 9.446 9.862 30.113-22.445z" fill="#8ac9fe"/><path d="m131.181 215.287c-4.556-7.305-12.66-12.17-21.904-12.17h-49.571c-25.257 0-45.731 20.474-45.731 45.731v37.364h86.56c8.857 0 16.931-3.336 23.045-8.817 4.275 5.37 10.863 8.817 18.261 8.817h23.075v-36.713c-.001-18.738-15.061-33.949-33.735-34.212z" fill="#c4573a"/><g><path d="m131.181 215.287c-4.556-7.305-12.66-12.17-21.904-12.17h-25.512c9.244 0 17.348 4.865 21.904 12.17 18.675.263 33.735 15.475 33.735 34.212v36.581c.801.083 1.613.133 2.437.133h23.075v-36.713c-.001-18.739-15.061-33.95-33.735-34.213z" fill="#a74b30"/></g><g><path d="m54.012 339.81h-6.639c-3.141 0-5.687-2.546-5.687-5.687s2.546-5.687 5.687-5.687h6.639c3.141 0 5.687 2.546 5.687 5.687-.001 3.141-2.547 5.687-5.687 5.687z" fill="#ffb09e"/></g><g><path d="m131.517 339.81h-6.639c-3.141 0-5.687-2.546-5.687-5.687s2.546-5.687 5.687-5.687h6.639c3.141 0 5.687 2.546 5.687 5.687s-2.546 5.687-5.687 5.687z" fill="#ffb09e"/></g></g><g><path d="m375.867 398.573h-8.089c-15.107 0-27.355 12.247-27.355 27.354v46.912h164.077v-46.912c0-15.107-12.247-27.354-27.354-27.354z" fill="#c4e2ff"/><path d="m477.146 398.573h-28.346c15.107 0 27.354 12.247 27.354 27.354v46.912h28.346v-46.912c0-15.107-12.247-27.354-27.354-27.354z" fill="#b3dafe"/><path d="m397.118 345.894v41.082l25.25 16.834 25.25-16.834v-41.082z" fill="#ffcebf"/><path d="m369.973 286.212h-23.075v-36.713c0-18.902 15.323-34.224 34.224-34.224h12.183v47.605c0 12.886-10.446 23.332-23.332 23.332z" fill="#c4573a"/><path d="m483.31 286.191c-.282 0-.562.01-.842.021-4.823-28.838-29.893-50.817-60.1-50.817-30.207 0-55.277 21.979-60.1 50.817-.28-.011-.56-.021-.842-.021-11.429 0-20.694 9.265-20.694 20.693 0 11.429 9.265 20.694 20.694 20.694.282 0 .562-.01.842-.021 4.823 28.838 29.893 50.817 60.1 50.817 30.207 0 55.277-21.979 60.1-50.817.28.011.56.021.842.021 11.429 0 20.694-9.265 20.694-20.694s-9.265-20.693-20.694-20.693z" fill="#ffcebf"/><path d="m422.368 403.81-12.942 13.513 4.691 18.383h16.503l4.691-18.383z" fill="#3c87d0"/><path d="m414.117 435.706-7.295 37.133h31.09l-7.295-37.133z" fill="#3c87d0"/><path d="m397.118 386.977-21.344 11.596 30.113 22.445 16.481-17.208z" fill="#b3dafe"/><path d="m447.618 386.977 21.345 11.596-30.114 22.445-16.481-17.208z" fill="#b3dafe"/><path d="m483.31 286.191c-.282 0-.562.01-.842.021-4.823-28.838-29.893-50.817-60.1-50.817-3.38 0-6.691.29-9.921.819 25.638 4.2 45.896 24.387 50.179 49.998.28-.011.56-.021.842-.021 11.429 0 20.694 9.265 20.694 20.694s-9.265 20.694-20.694 20.694c-.282 0-.562-.01-.842-.021-4.283 25.611-24.541 45.798-50.179 49.998 3.23.529 6.541.819 9.921.819 30.207 0 55.277-21.979 60.1-50.817.28.011.56.021.842.021 11.429 0 20.694-9.265 20.694-20.694 0-11.43-9.265-20.694-20.694-20.694z" fill="#ffbfb1"/><path d="m447.618 386.977-10.182 6.788 8.849 4.808-16.881 12.583 9.445 9.862 30.114-22.445z" fill="#8ac9fe"/><path d="m411.278 286.212h86.56v-37.364c0-25.257-20.475-45.731-45.731-45.731h-49.571c-14.249 0-25.801 11.551-25.801 25.801v22.751c0 19.078 15.466 34.543 34.543 34.543z" fill="#c4573a"/><path d="m452.107 203.117h-28.346c25.257 0 45.731 20.474 45.731 45.731v37.364h28.346v-37.364c0-25.257-20.474-45.731-45.731-45.731z" fill="#a74b30"/><g><path d="m387.101 339.81h-6.639c-3.141 0-5.687-2.546-5.687-5.687s2.546-5.687 5.687-5.687h6.639c3.141 0 5.687 2.546 5.687 5.687s-2.547 5.687-5.687 5.687z" fill="#ffb09e"/></g><g><path d="m464.565 339.81h-6.639c-3.141 0-5.687-2.546-5.687-5.687s2.546-5.687 5.687-5.687h6.639c3.141 0 5.687 2.546 5.687 5.687s-2.546 5.687-5.687 5.687z" fill="#ffb09e"/></g></g><g><path d="m194.427 409.055h-10.344c-19.318 0-34.978 15.66-34.978 34.978v59.987h209.806v-59.987c0-19.318-15.66-34.978-34.978-34.978z" fill="#c4e2ff"/><path d="m323.933 409.055h-22.677c19.318 0 34.978 15.66 34.978 34.978v59.987h22.677v-59.987c0-19.317-15.66-34.978-34.978-34.978z" fill="#b3dafe"/><path d="m331.815 265.351c-.361 0-.719.013-1.077.027-6.167-36.875-38.224-64.98-76.85-64.98-38.626 0-70.683 28.105-76.85 64.98-.358-.014-.716-.027-1.077-.027-14.614 0-26.461 11.847-26.461 26.461s11.847 26.461 26.461 26.461c.361 0 .719-.013 1.077-.027 6.167 36.875 38.224 64.98 76.85 64.98 38.626 0 70.683-28.105 76.85-64.98.358.014.716.027 1.077.027 14.614 0 26.461-11.847 26.461-26.461s-11.847-26.461-26.461-26.461z" fill="#ffcebf"/><path d="m221.601 341.695v52.532l32.287 21.525 32.288-21.525v-52.532z" fill="#ffcebf"/><path d="m253.888 415.752-16.549 17.279 5.998 23.507h21.103l5.998-23.507z" fill="#3e5959"/><path d="m243.337 456.538-9.328 47.482h39.754l-9.328-47.482z" fill="#3e5959"/><path d="m221.601 394.227-27.293 14.828 38.506 28.701 21.074-22.004z" fill="#b3dafe"/><path d="m286.176 394.227 27.293 14.828-38.506 28.701-21.075-22.004z" fill="#b3dafe"/><path d="m239.444 159.285h-17.04c-32.904 0-59.578 26.674-59.578 59.578v46.516h57.722c18.413 0 33.339-14.926 33.339-33.339v-58.311c.001-7.978-6.466-14.444-14.443-14.444z" fill="#3e5959"/><path d="m331.815 265.351c-.361 0-.719.013-1.077.027-6.167-36.875-38.224-64.98-76.85-64.98-3.853 0-7.636.291-11.338.831 33.421 4.874 59.96 30.952 65.512 64.149.358-.014.716-.027 1.077-.027 14.614 0 26.461 11.847 26.461 26.461s-11.847 26.461-26.461 26.461c-.361 0-.719-.013-1.077-.027-5.552 33.197-32.091 59.275-65.512 64.149 3.703.54 7.486.831 11.338.831 38.626 0 70.683-28.105 76.85-64.98.358.014.716.027 1.077.027 14.614 0 26.461-11.847 26.461-26.461.001-14.614-11.847-26.461-26.461-26.461z" fill="#ffbfb1"/><path d="m286.176 394.227-10.182 6.788 14.798 8.04-25.275 18.839 9.446 9.862 38.506-28.701z" fill="#8ac9fe"/><g fill="#c4573a"><path d="m285.372 159.285h-17.04c-7.977 0-14.443 6.466-14.443 14.443v58.311c0 18.413 14.926 33.339 33.339 33.339h57.722v-46.516c0-32.903-26.674-59.577-59.578-59.577z"/><path d="m239.444 159.285h-17.04c-32.904 0-59.578 26.674-59.578 59.578v46.516h57.722c18.413 0 33.339-14.926 33.339-33.339v-58.311c.001-7.978-6.466-14.444-14.443-14.444z"/></g><path d="m285.372 159.285h-17.04c-.63 0-1.245.054-1.854.132 31.139 1.954 55.794 27.814 55.794 59.446v46.516h22.677v-46.516c.001-32.904-26.673-59.578-59.577-59.578z" fill="#a74b30"/></g><g><path d="m342.766 83.573h-15.833c-1.632-5.795-3.938-11.307-6.824-16.45l11.203-11.203c2.863-2.863 2.863-7.504 0-10.367l-18.789-18.789c-2.863-2.863-7.504-2.863-10.367 0l-11.203 11.203c-5.143-2.885-10.655-5.191-16.45-6.824v-15.833c0-4.048-3.282-7.33-7.33-7.33h-26.572c-4.048 0-7.33 3.282-7.33 7.33v15.834c-5.795 1.632-11.307 3.938-16.45 6.824l-11.203-11.203c-2.863-2.863-7.504-2.863-10.367 0l-18.789 18.789c-2.863 2.863-2.863 7.504 0 10.367l11.203 11.203c-2.885 5.143-5.191 10.655-6.824 16.45h-15.833c-4.048 0-7.33 3.282-7.33 7.33v26.572c0 4.049 3.282 7.33 7.33 7.33h15.833c1.632 5.795 3.939 11.307 6.824 16.45l-11.203 11.203c-2.863 2.862-2.863 7.504 0 10.366l18.789 18.79c2.863 2.862 7.504 2.862 10.367 0l11.203-11.203c5.143 2.885 10.655 5.191 16.45 6.824v15.833c0 4.049 3.282 7.33 7.33 7.33h26.572c4.048 0 7.33-3.282 7.33-7.33v-15.833c5.795-1.632 11.307-3.939 16.45-6.824l11.203 11.203c2.863 2.862 7.504 2.862 10.367 0l18.789-18.79c2.863-2.862 2.863-7.504 0-10.366l-11.203-11.203c2.885-5.143 5.191-10.655 6.824-16.45h15.833c4.048 0 7.33-3.282 7.33-7.33v-26.573c0-4.049-3.282-7.33-7.33-7.33z" fill="#678d98"/><circle cx="253.887" cy="104.189" fill="#c8effe" r="32.701"/><g fill="#537983"><path d="m342.766 83.573h-15.833c-1.632-5.795-3.938-11.306-6.824-16.45l11.203-11.203c2.863-2.863 2.863-7.504 0-10.367l-18.789-18.789c-2.863-2.863-7.504-2.863-10.367 0l-6.155 6.155 12.634 12.634c2.863 2.863 2.863 7.504 0 10.367l-11.203 11.203c2.885 5.143 5.191 10.655 6.824 16.45h15.833c4.048 0 7.33 3.282 7.33 7.33v26.572c0 4.049-3.282 7.33-7.33 7.33h-15.833c-1.632 5.795-3.938 11.307-6.824 16.45l11.203 11.203c2.863 2.862 2.863 7.504 0 10.366l-12.634 12.634 6.155 6.156c2.863 2.863 7.504 2.863 10.367 0l18.789-18.79c2.863-2.863 2.863-7.504 0-10.366l-11.203-11.203c2.885-5.144 5.191-10.655 6.824-16.45h15.833c4.048 0 7.33-3.282 7.33-7.33v-26.572c0-4.049-3.282-7.33-7.33-7.33z"/><path d="m251.826 15.31v15.833c5.795 1.632 11.307 3.938 16.45 6.823l6.687-6.687c-.154-.044-.305-.094-.459-.137v-15.832c0-4.048-3.282-7.33-7.33-7.33h-22.677c4.047-.001 7.329 3.281 7.329 7.33z"/></g><path d="m253.887 71.488c-2.434 0-4.803.276-7.087.782 14.634 3.248 25.614 16.321 25.614 31.918s-10.98 28.671-25.614 31.918c2.283.507 4.653.782 7.087.782 18.031 0 32.701-14.669 32.701-32.701s-14.67-32.699-32.701-32.699z" fill="#99e6fc"/></g><g><path d="m305.346 331.289h-8.755c-4.143 0-7.5-3.358-7.5-7.5s3.357-7.5 7.5-7.5h8.755c4.143 0 7.5 3.358 7.5 7.5s-3.357 7.5-7.5 7.5z" fill="#ffb09e"/></g><g><path d="m211.186 331.289h-8.755c-4.142 0-7.5-3.358-7.5-7.5s3.358-7.5 7.5-7.5h8.755c4.142 0 7.5 3.358 7.5 7.5s-3.358 7.5-7.5 7.5z" fill="#ffb09e"/></g></g><g><path d="m392.622 298.829c-4.143 0-7.5 3.358-7.5 7.5v9.96c0 4.142 3.357 7.5 7.5 7.5s7.5-3.358 7.5-7.5v-9.96c0-4.142-3.357-7.5-7.5-7.5z"/><path d="m452.114 298.829c-4.143 0-7.5 3.358-7.5 7.5v9.96c0 4.142 3.357 7.5 7.5 7.5s7.5-3.358 7.5-7.5v-9.96c0-4.142-3.357-7.5-7.5-7.5z"/><path d="m67.198 316.289v-9.96c0-4.142-3.358-7.5-7.5-7.5s-7.5 3.358-7.5 7.5v9.96c0 4.142 3.358 7.5 7.5 7.5s7.5-3.358 7.5-7.5z"/><path d="m119.191 323.789c4.142 0 7.5-3.358 7.5-7.5v-9.96c0-4.142-3.358-7.5-7.5-7.5s-7.5 3.358-7.5 7.5v9.96c0 4.142 3.358 7.5 7.5 7.5z"/><path d="m215.852 311.338c4.142 0 7.5-3.358 7.5-7.5v-12.736c0-4.142-3.358-7.5-7.5-7.5s-7.5 3.358-7.5 7.5v12.736c0 4.142 3.357 7.5 7.5 7.5z"/><path d="m291.926 311.338c4.143 0 7.5-3.358 7.5-7.5v-12.736c0-4.142-3.357-7.5-7.5-7.5s-7.5 3.358-7.5 7.5v12.736c0 4.142 3.357 7.5 7.5 7.5z"/><path d="m253.888 352.42c13.261 0 24.05-10.22 24.05-22.783 0-4.142-3.357-7.5-7.5-7.5s-7.5 3.358-7.5 7.5c0 4.292-4.06 7.783-9.05 7.783s-9.049-3.491-9.049-7.783c0-4.142-3.358-7.5-7.5-7.5s-7.5 3.358-7.5 7.5c0 12.563 10.788 22.783 24.049 22.783z"/><path d="m253.887 63.988c-22.167 0-40.201 18.034-40.201 40.201s18.034 40.201 40.201 40.201 40.201-18.034 40.201-40.201-18.034-40.201-40.201-40.201zm0 65.402c-13.896 0-25.201-11.305-25.201-25.201s11.305-25.201 25.201-25.201 25.201 11.305 25.201 25.201-11.306 25.201-25.201 25.201z"/><path d="m477.146 391.073h-6.277l-15.75-8.557v-4.91c16.334-8.86 28.712-24.22 33.527-43.034 13.004-2.501 22.858-13.965 22.858-27.688 0-6.84-2.506-13.153-6.641-18.065.302-.813.475-1.689.475-2.608v-37.364c0-29.352-23.879-53.231-53.23-53.231h-49.571c-10.459 0-19.802 4.851-25.912 12.416-9.304 1.011-17.711 5.123-24.174 11.264v-.434c0-17.885-6.994-34.657-19.41-47.16l3.574-3.574c2.802-2.801 4.345-6.526 4.345-10.488s-1.543-7.687-4.344-10.486l-7.331-7.331c1.163-2.457 2.205-4.967 3.12-7.519h10.361c8.178 0 14.83-6.653 14.83-14.83v-26.571c0-8.177-6.652-14.83-14.83-14.83h-10.361c-.915-2.552-1.957-5.063-3.12-7.519l7.33-7.33c2.65-2.65 4.189-6.171 4.333-9.915.159-4.139-3.067-7.623-7.206-7.782-4.13-.153-7.583 3.031-7.779 7.136l-11.156 11.156c-2.375 2.376-2.881 6.042-1.237 8.972 2.63 4.69 4.697 9.674 6.146 14.814.91 3.233 3.859 5.467 7.219 5.467h15.663v26.232h-15.663c-3.359 0-6.309 2.233-7.219 5.467-1.448 5.14-3.516 10.124-6.146 14.814-1.644 2.931-1.138 6.596 1.237 8.972l11.083 11.083c-15.336 15.336-2.281 2.28-18.549 18.549-7.941-7.94-5.474-5.473-11.083-11.082-2.376-2.376-6.042-2.882-8.973-1.238-4.689 2.63-9.674 4.698-14.814 6.146-3.233.911-5.467 3.86-5.467 7.219v15.663h-3.121c-.003 0-.006 0-.01 0h-23.102v-.031-15.633c0-3.359-2.233-6.308-5.466-7.219-4.993-1.406-9.996-3.442-14.814-6.146-2.931-1.643-6.597-1.138-8.972 1.238l-11.083 11.083-18.549-18.549 11.083-11.083c2.376-2.375 2.882-6.042 1.238-8.972-2.629-4.688-4.697-9.673-6.146-14.815-.911-3.233-3.86-5.466-7.219-5.466h-15.664v-26.231h15.664c3.359 0 6.309-2.234 7.219-5.467 1.447-5.14 3.515-10.124 6.146-14.814 1.644-2.931 1.138-6.597-1.238-8.972l-11.083-11.083 18.549-18.549 11.083 11.083c2.375 2.375 6.042 2.88 8.972 1.238 4.689-2.63 9.673-4.698 14.813-6.146 3.234-.911 5.467-3.86 5.467-7.219v-15.665h26.232v15.664c0 3.359 2.233 6.309 5.467 7.219 5.141 1.447 10.125 3.515 14.814 6.146 2.93 1.642 6.596 1.139 8.972-1.238l11.12-11.119c3.691 1.755 8.117.232 9.938-3.44 1.841-3.71.325-8.211-3.385-10.052-2.034-1.009-4.312-1.542-6.583-1.542-.003 0-.005 0-.007 0-3.961 0-7.686 1.543-10.486 4.344l-7.332 7.331c-2.456-1.163-4.966-2.205-7.519-3.12v-10.362c0-8.177-6.652-14.83-14.83-14.83h-26.572c-8.177 0-14.83 6.653-14.83 14.83v10.362c-2.552.915-5.063 1.957-7.519 3.12l-7.331-7.331c-2.801-2.801-6.525-4.344-10.486-4.344-3.962 0-7.687 1.543-10.486 4.344l-18.788 18.788c-2.802 2.801-4.345 6.525-4.345 10.488 0 3.962 1.543 7.686 4.344 10.486l7.331 7.331c-1.163 2.456-2.205 4.966-3.12 7.519h-10.362c-8.177 0-14.83 6.653-14.83 14.83v26.572c0 8.177 6.653 14.83 14.83 14.83h10.362c.915 2.553 1.957 5.063 3.119 7.519l-7.331 7.331c-5.796 5.795-5.797 15.177 0 20.973l3.576 3.576c-11.744 11.827-18.618 27.476-19.327 44.271-5.785-4.286-12.697-7.128-20.195-7.947-6.289-7.837-15.722-12.412-25.936-12.412h-49.57c-29.352 0-53.231 23.879-53.231 53.231v37.364c0 .918.173 1.794.475 2.608-4.135 4.912-6.641 11.224-6.641 18.065 0 13.723 9.854 25.187 22.858 27.688 4.815 18.814 17.194 34.174 33.528 43.034v4.91l-15.75 8.557h-6.09c-19.219 0-34.855 15.635-34.855 34.855v46.912c0 4.142 3.358 7.5 7.5 7.5h134.105v23.681c0 4.142 3.358 7.5 7.5 7.5h22.371c4.142 0 7.5-3.358 7.5-7.5s-3.358-7.5-7.5-7.5h-14.871v-23.681-28.806c0-10.178 5.667-19.615 14.822-24.378 7.035-3.667 12.308-3.1 20.393-3.1l36.512 27.214c1.195.891 2.762 1.463 4.385 1.483l2.935 11.5-7.812 39.768h-21.364c-4.142 0-7.5 3.358-7.5 7.5s3.358 7.5 7.5 7.5h152.436c4.143 0 7.5-3.358 7.5-7.5v-23.681h71.5 66.588c4.143 0 7.5-3.358 7.5-7.5v-46.912c0-19.22-15.636-34.855-34.854-34.855zm-109.369 0c-10.963 0-21.158 5.197-27.67 13.69-4.989-2.062-10.449-3.208-16.175-3.208h-8.558l-21.699-11.789v-8.872c21.908-11.527 37.558-31.936 43.254-55.505.937-.142 1.86-.327 2.77-.544 4.157 5.072 9.925 8.509 16.392 9.735 4.817 18.809 17.194 34.166 33.525 43.025v4.912l-15.75 8.556zm-210.777-99.26c0-10 7.88-18.458 18.054-18.934h45.495c13.749 0 25.935-6.832 33.34-17.277 7.404 10.446 19.59 17.277 33.34 17.277h45.494c9.994.468 18.054 8.707 18.054 18.934 0 10.542-8.785 19.374-19.741 18.94-3.752-.152-7.071 2.531-7.694 6.257-5.765 34.475-35.397 58.714-69.449 58.717-.001 0-.002 0-.003 0-33.771 0-63.646-23.996-69.453-58.717-.621-3.71-3.9-6.404-7.694-6.257-11.053.437-19.743-8.55-19.743-18.94zm108.495 125.215c.623-.415 20.805-13.869 21.076-14.05l13.015 7.071-23.791 17.733c-3.426-3.578-.608-.635-10.3-10.754zm-11.606-26.301c8.175 0 16.731-1.211 24.787-3.662v3.148c-2.808 1.872-22.396 14.931-24.787 16.525l-24.788-16.525v-3.148c8.083 2.46 16.621 3.662 24.788 3.662zm-32.684 12.251 21.077 14.05-10.3 10.754-23.792-17.733zm24.431 32.234 8.253-8.617 8.253 8.617-3.528 13.827h-9.449zm176.732-49.338c5.444 0 10.996-.664 16.313-1.954-6.607 4.405-10.019 6.679-16.313 10.876l-16.315-10.877c5.33 1.294 10.802 1.955 16.315 1.955zm-32.712 13.692 7.066-3.839c11.019 7.346 8.197 5.464 14.039 9.359l-5.706 5.958zm28.067 19.938 4.646-4.851 4.646 4.851-2.221 8.703h-4.851zm16.253-14.418c17.567-11.712 13.354-8.903 14.038-9.359l7.066 3.839-15.398 11.478zm49.334-85.008c-.182 0-.361-.008-.542-.016-3.752-.149-7.074 2.529-7.697 6.257-4.385 26.219-26.923 44.555-52.702 44.555-26.028 0-48.358-18.573-52.703-44.555-.618-3.693-3.878-6.402-7.699-6.257-3.045.125-5.866-.774-8.147-2.395 7.23-6.171 11.645-15.137 11.942-24.818.038-.02.073-.046.11-.066 3.694-2.027 3.721-5.27 4.296-7.9.921-4.214 2.328-8.328 4.468-12.577 7.242 12.848 21.117 21.406 36.643 21.406h72.37c7.095.18 12.855 6.075 12.855 13.172 0 7.275-5.919 13.194-13.194 13.194zm-80.774-109.461h49.571c21.08 0 38.23 17.15 38.23 38.231v29.864h-6.605-72.454c-3.082 0-6.283-.551-9.224-1.622-.035-.013-.071-.025-.106-.038-10.518-3.879-17.712-13.954-17.712-25.383v-22.751c-.001-10.047 8.181-18.301 18.3-18.301zm-33.127 14.891c-.282 2.76-.182 26.661-.145 27.662-4.49 5.508-8.066 11.734-10.517 17.906-1.3-1.69-2.756-3.252-4.349-4.668v-16.91c-.001-10.471 6.142-19.622 15.011-23.99zm-184.077-43.207c4.673 4.673 7.851 8.96 15.103 8.96.032 0 .108-.001.172-.001 7.564-.088 11.072-5.101 17.645-11.674 2.456 1.163 4.966 2.205 7.519 3.12v10.162.2c0 8.178 6.653 14.831 14.83 14.831h26.572c8.178 0 14.83-6.653 14.83-14.831v-10.362c2.552-.915 5.063-1.957 7.519-3.12 7.499 7.499 8.861 9.463 13.059 10.882 5.327 1.801 11.195.498 15.245-3.551l4.617-4.618c9.606 9.704 15.007 22.708 15.007 36.563v39.016c-6.249 0-43.955 0-50.222 0-14.176 0-25.724-11.476-25.84-25.625 0-.071 0-.141 0-.213l-.001-.001c0-4.142-3.358-7.5-7.5-7.5s-7.5 3.358-7.5 7.5c0 14.248-11.591 25.839-25.839 25.839-10.448 0-39.294 0-48.134 0v-8.38c0-4.515-.739-8.87-2.089-12.956v-17.68c.001-13.852 5.401-26.857 15.007-36.561zm-163.857 66.547c0-21.081 17.15-38.231 38.231-38.231h49.571c6.357 0 12.167 3.229 15.54 8.639 1.35 2.165 3.708 3.495 6.258 3.53 10.879.153 20.239 6.916 24.251 16.405v25.613c-4.702 3.588-8.423 8.374-10.724 13.908-2.833 0-9.867.656-15.155-5.987-2.727-3.427-7.721-3.741-10.875-.914-4.965 4.45-11.371 6.901-18.039 6.901h-72.45-6.609v-29.864zm15.267 77.471c-.607-3.626-3.746-6.263-7.394-6.263-.102 0-.204.002-.305.006-.179.007-.359.016-.541.016-7.275 0-13.194-5.919-13.194-13.194 0-7.099 5.762-12.994 12.859-13.172h72.367c7.989 0 15.737-2.263 22.404-6.467 5.29 4.121 11.804 6.467 19.116 6.467.588 10.34 5.786 19.436 13.562 25.273-1.79.779-3.784 1.161-5.77 1.077-3.778-.151-7.075 2.529-7.699 6.257-4.346 25.985-26.689 44.555-52.703 44.555-25.913 0-48.339-18.47-52.702-44.555zm19.991 73.247 7.066-3.839 14.039 9.359-5.706 5.958zm16.399-15.646c5.415 1.314 10.966 1.954 16.313 1.954 5.371 0 10.932-.648 16.314-1.954l-16.314 10.876c-1.68-1.12-14.399-9.6-16.313-10.876zm11.667 35.583c.509-.532 4.176-4.36 4.645-4.85 3.953 4.127 3.333 3.48 4.646 4.85l-2.221 8.703h-4.85zm21.959-8.46-5.706-5.958 14.039-9.359 7.066 3.839zm-91.758 14.885c0-10.948 8.907-19.855 19.854-19.855h5.508l28.119 20.958c.944.703 2.104 1.173 3.104 1.36l1.922 7.53-5.779 29.419h-52.728zm68.016 39.411 4.348-22.133h4.161l4.348 22.133zm28.142 0-5.778-29.413 1.923-7.535c1-.186 2.161-.656 3.105-1.36l28.119-20.958h5.696c4.907 0 9.546 1.808 13.117 4.949-10.207 8.236-15.735 20.49-15.735 33.012v21.306h-30.447zm59.843-61.713c-6.552-7.866-16.315-12.553-26.779-12.553h-6.277l-15.75-8.557v-4.911c16.336-8.861 28.716-24.225 33.529-43.041 5.865-1.141 11.23-4.135 15.298-8.506 5.874 23.461 21.524 43.496 43.078 54.836v8.872l-21.699 11.79c-8.574 0-13.758-.41-21.4 2.07zm72.125 92.895 6.381-32.482h8.759l6.381 32.482zm108.285 0h-71.477l-7.811-39.762 2.936-11.505c1.637-.02 3.2-.6 4.386-1.484l36.511-27.213h7.976c15.078 0 27.479 12.263 27.479 27.478v28.806zm15-52.487c0-11.757-4.85-23.06-13.596-31.146 6.727-7.701 14.823-6.815 20.47-6.815l28.118 20.958c.944.703 2.105 1.174 3.105 1.359l1.922 7.531-5.778 29.418h-34.241zm49.527 21.305 4.348-22.133h4.161l4.348 22.133zm81.062 0h-52.919l-5.778-29.415 1.922-7.533c1-.186 2.165-.658 3.106-1.36l28.118-20.958h5.695c10.948 0 19.854 8.907 19.854 19.855v39.411z"/></g></g></svg>
